<?xml version="1.0" encoding="UTF-8"?>
<!DOCTYPE svg PUBLIC "-//W3C//DTD SVG 1.1//EN" "http://www.w3.org/Graphics/SVG/1.1/DTD/svg11.dtd">
<svg xmlns="http://www.w3.org/2000/svg" version="1.1" width="2560px" height="2560px" style="shape-rendering:geometricPrecision; text-rendering:geometricPrecision; image-rendering:optimizeQuality; fill-rule:evenodd; clip-rule:evenodd" xmlns:xlink="http://www.w3.org/1999/xlink">
<g><path style="opacity:0.937" fill="#040404" d="M 1751.5,1288.5 C 1752.79,1288.26 1753.79,1288.6 1754.5,1289.5C 1752.62,1289.39 1752.29,1289.89 1753.5,1291C 1761.03,1291.6 1768.36,1293.1 1775.5,1295.5C 1776.42,1295.46 1777.08,1295.12 1777.5,1294.5C 1780.87,1295.5 1784.21,1296.5 1787.5,1297.5C 1786.96,1297.56 1786.62,1297.89 1786.5,1298.5C 1789.64,1299.8 1792.64,1299.8 1795.5,1298.5C 1798.87,1300.18 1802.2,1301.85 1805.5,1303.5C 1804.26,1303.81 1804.26,1304.31 1805.5,1305C 1841.84,1321.35 1876.84,1340.35 1910.5,1362C 1928.63,1377.46 1946.13,1393.63 1963,1410.5C 1979.83,1430 1996.67,1449.5 2013.5,1469C 2014.79,1469.49 2016.13,1469.66 2017.5,1469.5C 2033.5,1506.84 2050.66,1543.84 2069,1580.5C 2071.39,1586.95 2074.06,1593.28 2077,1599.5C 2078.59,1605.65 2080.09,1611.82 2081.5,1618C 2081.84,1619.03 2082.5,1619.53 2083.5,1619.5C 2084.34,1619.84 2084.67,1620.51 2084.5,1621.5C 2083.85,1622.27 2083.52,1623.27 2083.5,1624.5C 2084.99,1629.36 2085.82,1634.36 2086,1639.5C 2087.1,1643.36 2087.94,1647.36 2088.5,1651.5C 2089.11,1651.38 2089.44,1651.04 2089.5,1650.5C 2090.48,1654.63 2090.82,1658.97 2090.5,1663.5C 2089.51,1699.3 2089.51,1735.3 2090.5,1771.5C 2090.82,1776.03 2090.48,1780.37 2089.5,1784.5C 2089.82,1780.77 2089.49,1777.11 2088.5,1773.5C 2088.02,1784.66 2087.02,1795.66 2085.5,1806.5C 2085.51,1808.37 2085.84,1810.04 2086.5,1811.5C 2085.99,1819.19 2085.15,1826.86 2084,1834.5C 2082.94,1837.03 2082.1,1839.7 2081.5,1842.5C 2078.22,1844.75 2076.22,1847.75 2075.5,1851.5C 2073.9,1852.74 2072.74,1854.4 2072,1856.5C 2071.26,1857.75 2071.43,1858.75 2072.5,1859.5C 2072.17,1860.17 2071.83,1860.83 2071.5,1861.5C 2069.58,1861.71 2069.24,1862.38 2070.5,1863.5C 2070.71,1865.18 2070.05,1866.18 2068.5,1866.5C 2067.59,1868.66 2066.93,1870.99 2066.5,1873.5C 2065.7,1875.19 2064.7,1876.86 2063.5,1878.5C 2063.62,1879.11 2063.96,1879.44 2064.5,1879.5C 2063.29,1882.82 2062.29,1886.16 2061.5,1889.5C 2060.41,1889.62 2059.75,1890.29 2059.5,1891.5C 2059.54,1892.42 2059.88,1893.08 2060.5,1893.5C 2059.7,1898.14 2057.37,1901.81 2053.5,1904.5C 2053.44,1903.96 2053.11,1903.62 2052.5,1903.5C 2041.13,1922.37 2029.97,1941.37 2019,1960.5C 2005.33,1978.17 1991.67,1995.83 1978,2013.5C 1964.14,2025.36 1950.31,2037.2 1936.5,2049C 1934.47,2051.09 1932.81,2053.43 1931.5,2056C 1914.36,2069.07 1896.69,2081.41 1878.5,2093C 1868.11,2098.53 1857.44,2103.53 1846.5,2108C 1845.83,2109.33 1845.17,2110.67 1844.5,2112C 1811.38,2122.95 1778.04,2133.28 1744.5,2143C 1717.48,2148.39 1690.15,2151.06 1662.5,2151C 1656.17,2150 1649.83,2149 1643.5,2148C 1623.07,2147.69 1602.74,2146.69 1582.5,2145C 1575.94,2143.74 1569.27,2143.08 1562.5,2143C 1543,2137.05 1523.33,2131.72 1503.5,2127C 1479.62,2116.33 1455.62,2106.16 1431.5,2096.5C 1424.21,2091.84 1417.21,2086.68 1410.5,2081C 1406.1,2079.76 1402.44,2077.43 1399.5,2074C 1398.56,2073.31 1397.9,2073.47 1397.5,2074.5C 1396.21,2074.74 1395.21,2074.4 1394.5,2073.5C 1395.53,2073.1 1395.69,2072.44 1395,2071.5C 1393.73,2070.12 1392.23,2069.12 1390.5,2068.5C 1389.51,2068.67 1388.84,2068.34 1388.5,2067.5C 1385.45,2063.94 1382.11,2060.44 1378.5,2057C 1368.34,2049 1358.34,2040.83 1348.5,2032.5C 1347.51,2032.67 1346.84,2032.34 1346.5,2031.5C 1345.83,2028.83 1344.17,2027.17 1341.5,2026.5C 1340.13,2025.49 1338.8,2024.49 1337.5,2023.5C 1337.17,2021.17 1335.83,2019.83 1333.5,2019.5C 1331.77,2018.76 1330.77,2017.43 1330.5,2015.5C 1330.14,2013.81 1329.14,2012.81 1327.5,2012.5C 1326.5,2011.5 1325.5,2010.5 1324.5,2009.5C 1325.53,2009.1 1325.69,2008.44 1325,2007.5C 1321.95,2004.45 1319.11,2001.61 1316.5,1999C 1286.27,2030.57 1254.94,2060.57 1222.5,2089C 1198.45,2104.03 1173.78,2118.03 1148.5,2131C 1135.78,2135.76 1123.12,2140.43 1110.5,2145C 1096.38,2148.59 1082.38,2152.59 1068.5,2157C 1041.76,2158.36 1015.09,2160.36 988.5,2163C 971.732,2163.05 955.065,2163.88 938.5,2165.5C 926.745,2164.14 914.912,2163.14 903,2162.5C 901.177,2162.89 899.343,2163.22 897.5,2163.5C 889.997,2162.2 882.664,2160.53 875.5,2158.5C 867.781,2155.99 859.781,2154.32 851.5,2153.5C 851.289,2151.58 850.623,2151.24 849.5,2152.5C 847.585,2152.78 845.919,2152.45 844.5,2151.5C 845.738,2151.19 845.738,2150.69 844.5,2150C 840.599,2149.89 836.932,2149.06 833.5,2147.5C 832.584,2147.54 831.917,2147.88 831.5,2148.5C 825.778,2146.72 820.111,2145.06 814.5,2143.5C 815.751,2142.53 815.418,2141.86 813.5,2141.5C 812.584,2141.54 811.917,2141.88 811.5,2142.5C 808.927,2141.51 806.26,2140.67 803.5,2140C 802.695,2138.89 802.028,2137.72 801.5,2136.5C 801.5,2135.5 801.5,2134.5 801.5,2133.5C 799.099,2132.95 796.765,2132.12 794.5,2131C 772.634,2118.57 750.634,2106.4 728.5,2094.5C 728.167,2094.5 727.833,2094.5 727.5,2094.5C 725.087,2092.11 722.42,2089.95 719.5,2088C 718.563,2087.31 717.897,2087.47 717.5,2088.5C 715.62,2088.77 714.287,2088.1 713.5,2086.5C 704.937,2079.09 696.604,2071.26 688.5,2063C 686.114,2061.81 683.78,2060.64 681.5,2059.5C 680.29,2059.07 679.29,2058.4 678.5,2057.5C 679.239,2057.63 679.906,2057.46 680.5,2057C 676.432,2052.99 672.099,2049.49 667.5,2046.5C 665.596,2046.26 664.262,2045.26 663.5,2043.5C 663.058,2040.67 661.725,2039.67 659.5,2040.5C 658.5,2039.5 657.5,2038.5 656.5,2037.5C 657.043,2037.44 657.376,2037.11 657.5,2036.5C 655.833,2034.83 654.167,2033.17 652.5,2031.5C 651.893,2031.62 651.56,2031.96 651.5,2032.5C 650.599,2031.71 649.932,2030.71 649.5,2029.5C 649.5,2028.17 649.5,2026.83 649.5,2025.5C 648.5,2025.5 647.5,2025.5 646.5,2025.5C 645.094,2025.03 644.427,2024.03 644.5,2022.5C 644.938,2022.57 645.272,2022.4 645.5,2022C 630.536,2003.55 616.203,1984.72 602.5,1965.5C 594.903,1951.2 587.403,1936.87 580,1922.5C 578.133,1917.9 576.466,1913.23 575,1908.5C 574,1907.83 573,1907.17 572,1906.5C 563.048,1870.99 553.715,1835.66 544,1800.5C 539.703,1780.16 538.37,1759.49 540,1738.5C 541.235,1730.58 541.902,1722.58 542,1714.5C 547.035,1674.78 552.368,1635.11 558,1595.5C 565.057,1579.66 571.724,1563.66 578,1547.5C 588.959,1524.57 602.292,1503.24 618,1483.5C 635.389,1463.05 652.055,1442.05 668,1420.5C 689.135,1400.86 711.635,1383.03 735.5,1367C 770.966,1346.92 806.966,1328.08 843.5,1310.5C 843.376,1309.89 843.043,1309.56 842.5,1309.5C 844.934,1308.87 847.268,1307.87 849.5,1306.5C 850.622,1307.16 851.955,1307.49 853.5,1307.5C 886.509,1300.68 919.842,1296.68 953.5,1295.5C 969.227,1295.58 984.893,1296.41 1000.5,1298C 1027.19,1302.01 1053.85,1306.01 1080.5,1310C 1114.28,1323.39 1147.95,1337.06 1181.5,1351C 1203.66,1361.17 1223.66,1374.5 1241.5,1391C 1257.37,1402.2 1272.04,1414.87 1285.5,1429C 1288.88,1430.37 1291.71,1432.54 1294,1435.5C 1297.02,1440.2 1300.52,1444.53 1304.5,1448.5C 1306.98,1447.28 1307.98,1445.28 1307.5,1442.5C 1309.98,1441.09 1312.31,1439.42 1314.5,1437.5C 1316.26,1436.74 1317.26,1435.4 1317.5,1433.5C 1318.17,1432.83 1318.83,1432.17 1319.5,1431.5C 1320.12,1431.61 1320.62,1431.94 1321,1432.5C 1322.31,1430.02 1324.14,1428.02 1326.5,1426.5C 1326.38,1425.89 1326.04,1425.56 1325.5,1425.5C 1326.17,1424.83 1326.83,1424.17 1327.5,1423.5C 1331.77,1420.4 1335.94,1417.07 1340,1413.5C 1340.53,1412.18 1340.03,1411.52 1338.5,1411.5C 1339.29,1410.6 1340.29,1409.93 1341.5,1409.5C 1342.12,1409.61 1342.62,1409.94 1343,1410.5C 1346.31,1406.02 1350.15,1402.02 1354.5,1398.5C 1354.04,1397.7 1353.38,1397.37 1352.5,1397.5C 1353.5,1396.83 1354.5,1396.17 1355.5,1395.5C 1356.12,1395.61 1356.62,1395.94 1357,1396.5C 1358.17,1394 1360,1392.17 1362.5,1391C 1361.94,1390.62 1361.61,1390.12 1361.5,1389.5C 1361.84,1388.66 1362.51,1388.33 1363.5,1388.5C 1365.5,1387.17 1367.17,1385.5 1368.5,1383.5C 1368.5,1382.83 1368.83,1382.5 1369.5,1382.5C 1371.5,1382.5 1372.5,1381.5 1372.5,1379.5C 1378.11,1376.89 1382.45,1372.89 1385.5,1367.5C 1387.48,1365.86 1389.48,1364.2 1391.5,1362.5C 1391.56,1363.04 1391.89,1363.38 1392.5,1363.5C 1393.77,1362.74 1393.77,1362.08 1392.5,1361.5C 1394.62,1359.6 1396.95,1357.93 1399.5,1356.5C 1399.56,1357.04 1399.89,1357.38 1400.5,1357.5C 1401.77,1356.74 1401.77,1356.08 1400.5,1355.5C 1403.09,1354.25 1405.42,1352.58 1407.5,1350.5C 1408.62,1351.76 1409.29,1351.42 1409.5,1349.5C 1413.51,1345.49 1418.18,1342.49 1423.5,1340.5C 1424.62,1341.76 1425.29,1341.42 1425.5,1339.5C 1428.32,1337.93 1431.32,1336.59 1434.5,1335.5C 1435.5,1335.5 1436.5,1335.5 1437.5,1335.5C 1439.99,1334.31 1442.32,1332.98 1444.5,1331.5C 1448.63,1330.13 1452.63,1328.47 1456.5,1326.5C 1456.04,1325.7 1455.38,1325.37 1454.5,1325.5C 1455.21,1324.6 1456.21,1324.26 1457.5,1324.5C 1457.56,1325.04 1457.89,1325.38 1458.5,1325.5C 1468.05,1320.89 1477.72,1316.56 1487.5,1312.5C 1487.04,1311.7 1486.38,1311.37 1485.5,1311.5C 1487.37,1310.71 1489.37,1310.05 1491.5,1309.5C 1496.77,1308.6 1501.77,1306.93 1506.5,1304.5C 1506.38,1303.89 1506.04,1303.56 1505.5,1303.5C 1505.84,1302.66 1506.51,1302.33 1507.5,1302.5C 1507.92,1303.12 1508.58,1303.46 1509.5,1303.5C 1514.71,1302.12 1519.71,1300.29 1524.5,1298C 1523.91,1297.54 1523.24,1297.37 1522.5,1297.5C 1525.61,1296.95 1528.61,1295.95 1531.5,1294.5C 1532.6,1295.6 1533.93,1295.76 1535.5,1295C 1540.45,1293.54 1545.45,1292.04 1550.5,1290.5C 1550.38,1289.89 1550.04,1289.56 1549.5,1289.5C 1552.96,1288.52 1556.63,1288.19 1560.5,1288.5C 1567.48,1287.31 1574.48,1285.97 1581.5,1284.5C 1581.38,1283.89 1581.04,1283.56 1580.5,1283.5C 1581.21,1282.6 1582.21,1282.26 1583.5,1282.5C 1584.96,1283.16 1586.63,1283.49 1588.5,1283.5C 1590.64,1283.44 1592.31,1282.78 1593.5,1281.5C 1597.73,1280.78 1602.06,1280.11 1606.5,1279.5C 1630.99,1279.71 1655.32,1279.21 1679.5,1278C 1700.68,1281.72 1722.02,1285.39 1743.5,1289C 1746.37,1289.8 1749.03,1289.63 1751.5,1288.5 Z"/></g>
<g><path style="opacity:0.066" fill="#fafcfb" d="M 1751.5,1288.5 C 1749.03,1289.63 1746.37,1289.8 1743.5,1289C 1722.02,1285.39 1700.68,1281.72 1679.5,1278C 1655.32,1279.21 1630.99,1279.71 1606.5,1279.5C 1611.68,1278.83 1617.01,1278.17 1622.5,1277.5C 1645.83,1276.17 1669.17,1276.17 1692.5,1277.5C 1698.24,1279.95 1704.24,1281.45 1710.5,1282C 1724.58,1282.07 1738.24,1284.24 1751.5,1288.5 Z"/></g>
<g><path style="opacity:0.165" fill="#fefeff" d="M 1593.5,1281.5 C 1592.31,1282.78 1590.64,1283.44 1588.5,1283.5C 1586.63,1283.49 1584.96,1283.16 1583.5,1282.5C 1586.94,1282.75 1590.27,1282.41 1593.5,1281.5 Z"/></g>
<g><path style="opacity:0.07" fill="#f9f9fa" d="M 1580.5,1283.5 C 1581.04,1283.56 1581.38,1283.89 1581.5,1284.5C 1574.48,1285.97 1567.48,1287.31 1560.5,1288.5C 1561.34,1287.06 1562.67,1286.06 1564.5,1285.5C 1569.79,1284.44 1575.12,1283.77 1580.5,1283.5 Z"/></g>
<g><path style="opacity:0.053" fill="#f9f9f9" d="M 1307.5,1442.5 C 1307.98,1445.28 1306.98,1447.28 1304.5,1448.5C 1300.52,1444.53 1297.02,1440.2 1294,1435.5C 1291.71,1432.54 1288.88,1430.37 1285.5,1429C 1272.04,1414.87 1257.37,1402.2 1241.5,1391C 1223.66,1374.5 1203.66,1361.17 1181.5,1351C 1147.95,1337.06 1114.28,1323.39 1080.5,1310C 1053.85,1306.01 1027.19,1302.01 1000.5,1298C 984.893,1296.41 969.227,1295.58 953.5,1295.5C 919.842,1296.68 886.509,1300.68 853.5,1307.5C 851.955,1307.49 850.622,1307.16 849.5,1306.5C 857.76,1304.76 866.094,1303.26 874.5,1302C 878.383,1300.31 882.383,1298.81 886.5,1297.5C 898.485,1296.03 910.485,1294.7 922.5,1293.5C 923.833,1292.83 925.167,1292.17 926.5,1291.5C 952.506,1288.87 978.506,1288.54 1004.5,1290.5C 1021.03,1293.59 1037.7,1295.59 1054.5,1296.5C 1060.54,1298.24 1066.54,1300.07 1072.5,1302C 1081.35,1302.63 1089.69,1304.8 1097.5,1308.5C 1101.5,1309.17 1105.5,1309.83 1109.5,1310.5C 1112.61,1312.1 1115.61,1313.94 1118.5,1316C 1123.91,1316.85 1129.24,1318.02 1134.5,1319.5C 1138.69,1322.6 1143.36,1324.6 1148.5,1325.5C 1152.79,1330.04 1158.12,1332.37 1164.5,1332.5C 1166.46,1333.45 1168.12,1334.79 1169.5,1336.5C 1173.97,1337.77 1178.3,1339.43 1182.5,1341.5C 1184.99,1344.79 1188.32,1346.79 1192.5,1347.5C 1200.68,1353.69 1209.35,1359.02 1218.5,1363.5C 1225.29,1369.41 1232.29,1375.07 1239.5,1380.5C 1241.93,1381.31 1244.26,1382.31 1246.5,1383.5C 1248.79,1387.48 1252.12,1389.81 1256.5,1390.5C 1256.3,1394.64 1258.3,1396.97 1262.5,1397.5C 1265.62,1401.55 1268.96,1405.38 1272.5,1409C 1274.35,1410.13 1276.35,1410.63 1278.5,1410.5C 1278.15,1414.47 1279.82,1417.14 1283.5,1418.5C 1285.29,1420.02 1286.62,1421.85 1287.5,1424C 1291.12,1424.61 1294.12,1426.11 1296.5,1428.5C 1296.5,1429.83 1296.5,1431.17 1296.5,1432.5C 1297.83,1432.5 1299.17,1432.5 1300.5,1432.5C 1300.34,1434.2 1300.51,1435.87 1301,1437.5C 1303.63,1438.64 1305.8,1440.31 1307.5,1442.5 Z"/></g>
<g><path style="opacity:0.099" fill="#f8fbf9" d="M 1754.5,1289.5 C 1762.51,1289.75 1770.18,1291.42 1777.5,1294.5C 1777.08,1295.12 1776.42,1295.46 1775.5,1295.5C 1768.36,1293.1 1761.03,1291.6 1753.5,1291C 1752.29,1289.89 1752.62,1289.39 1754.5,1289.5 Z"/></g>
<g><path style="opacity:0.042" fill="#edefed" d="M 1549.5,1289.5 C 1550.04,1289.56 1550.38,1289.89 1550.5,1290.5C 1545.45,1292.04 1540.45,1293.54 1535.5,1295C 1533.93,1295.76 1532.6,1295.6 1531.5,1294.5C 1537.33,1292.22 1543.33,1290.56 1549.5,1289.5 Z"/></g>
<g><path style="opacity:0.999" fill="#fefefe" d="M 1616.5,1291.5 C 1638.84,1291.33 1661.17,1291.5 1683.5,1292C 1704.08,1295.62 1724.75,1298.96 1745.5,1302C 1762.9,1305.27 1779.9,1309.93 1796.5,1316C 1825.56,1329.36 1853.89,1344.03 1881.5,1360C 1908.81,1378.77 1933.97,1400.27 1957,1424.5C 1975.09,1444.58 1992.42,1465.25 2009,1486.5C 2027.82,1524.47 2045.82,1562.8 2063,1601.5C 2069.59,1621.05 2074.26,1641.05 2077,1661.5C 2079.26,1716.13 2077.26,1770.46 2071,1824.5C 2062.29,1842.3 2054.96,1860.63 2049,1879.5C 2036.24,1902.69 2023.24,1925.69 2010,1948.5C 1996.76,1967.07 1982.76,1985.07 1968,2002.5C 1953.42,2016.41 1938.26,2029.58 1922.5,2042C 1920.96,2043.58 1919.79,2045.41 1919,2047.5C 1893.69,2067.11 1866.52,2083.94 1837.5,2098C 1836.5,2099 1835.5,2100 1834.5,2101C 1802.84,2112.22 1770.84,2122.22 1738.5,2131C 1730.88,2132.63 1723.21,2133.97 1715.5,2135C 1700.8,2136.47 1686.13,2137.97 1671.5,2139.5C 1664.19,2138.16 1656.86,2136.99 1649.5,2136C 1622.48,2134.63 1595.48,2132.96 1568.5,2131C 1549.48,2125.83 1530.48,2120.49 1511.5,2115C 1491.94,2106.72 1472.27,2098.72 1452.5,2091C 1435.63,2081.46 1419.3,2071.12 1403.5,2060C 1391.5,2050 1379.5,2040 1367.5,2030C 1350.89,2015.73 1336.06,1999.89 1323,1982.5C 1318.16,1809.48 1313.82,1636.48 1310,1463.5C 1340.59,1431.91 1372.09,1401.41 1404.5,1372C 1415.04,1366.44 1424.71,1359.77 1433.5,1352C 1454.8,1342.35 1476.14,1332.68 1497.5,1323C 1535.87,1306.97 1575.54,1296.47 1616.5,1291.5 Z"/></g>
<g><path style="opacity:0.028" fill="#f7f9f8" d="M 1522.5,1297.5 C 1523.24,1297.37 1523.91,1297.54 1524.5,1298C 1519.71,1300.29 1514.71,1302.12 1509.5,1303.5C 1508.58,1303.46 1507.92,1303.12 1507.5,1302.5C 1511.95,1299.46 1516.95,1297.8 1522.5,1297.5 Z"/></g>
<g><path style="opacity:0.144" fill="#f3f3f3" d="M 1787.5,1297.5 C 1790.13,1298.09 1792.79,1298.42 1795.5,1298.5C 1792.64,1299.8 1789.64,1299.8 1786.5,1298.5C 1786.62,1297.89 1786.96,1297.56 1787.5,1297.5 Z"/></g>
<g><path style="opacity:0.024" fill="#f9fbfb" d="M 1505.5,1303.5 C 1506.04,1303.56 1506.38,1303.89 1506.5,1304.5C 1501.77,1306.93 1496.77,1308.6 1491.5,1309.5C 1492.51,1307.48 1494.17,1306.14 1496.5,1305.5C 1499.53,1304.75 1502.53,1304.08 1505.5,1303.5 Z"/></g>
<g><path style="opacity:0.999" fill="#fefefe" d="M 940.5,1307.5 C 958.274,1307.31 975.94,1308.15 993.5,1310C 1020.84,1313.74 1048.17,1317.74 1075.5,1322C 1114.86,1336.68 1153.53,1353.01 1191.5,1371C 1199.68,1375.25 1207.35,1380.25 1214.5,1386C 1231.46,1399.29 1248.12,1412.96 1264.5,1427C 1273.59,1436.03 1282.09,1445.53 1290,1455.5C 1292.48,1458.07 1295.15,1460.4 1298,1462.5C 1302.61,1636.83 1306.61,1811.16 1310,1985.5C 1286.83,2010 1263,2033.83 1238.5,2057C 1228.75,2066.09 1218.41,2074.43 1207.5,2082C 1186.68,2094.8 1165.35,2106.8 1143.5,2118C 1116.76,2128.8 1089.42,2137.8 1061.5,2145C 1034.44,2146.39 1007.44,2148.39 980.5,2151C 957.833,2151.67 935.167,2151.67 912.5,2151C 879.612,2145.89 847.278,2138.22 815.5,2128C 813.833,2126.33 812.167,2124.67 810.5,2123C 779.326,2107.25 748.993,2090.25 719.5,2072C 698.403,2054.24 677.903,2035.74 658,2016.5C 647.719,2001.88 637.052,1987.55 626,1973.5C 610.45,1951.75 597.45,1928.41 587,1903.5C 586,1902.5 585,1901.5 584,1900.5C 572.946,1858.88 562.279,1817.22 552,1775.5C 551.526,1756.8 552.193,1738.13 554,1719.5C 558.742,1680.41 564.076,1641.41 570,1602.5C 576.471,1586.09 583.138,1569.75 590,1553.5C 601.417,1530.31 615.083,1508.65 631,1488.5C 647.379,1469.12 663.379,1449.46 679,1429.5C 708.726,1400.89 741.893,1377.05 778.5,1358C 804.184,1345.54 829.85,1332.87 855.5,1320C 883.912,1315.2 912.245,1311.03 940.5,1307.5 Z"/></g>
<g><path style="opacity:0.049" fill="#fbfbfb" d="M 842.5,1309.5 C 843.043,1309.56 843.376,1309.89 843.5,1310.5C 806.966,1328.08 770.966,1346.92 735.5,1367C 711.635,1383.03 689.135,1400.86 668,1420.5C 652.055,1442.05 635.389,1463.05 618,1483.5C 602.292,1503.24 588.959,1524.57 578,1547.5C 571.724,1563.66 565.057,1579.66 558,1595.5C 552.368,1635.11 547.035,1674.78 542,1714.5C 541.902,1722.58 541.235,1730.58 540,1738.5C 538.37,1759.49 539.703,1780.16 544,1800.5C 553.715,1835.66 563.048,1870.99 572,1906.5C 573,1907.17 574,1907.83 575,1908.5C 576.466,1913.23 578.133,1917.9 580,1922.5C 587.403,1936.87 594.903,1951.2 602.5,1965.5C 597.96,1960.14 593.627,1954.47 589.5,1948.5C 588.479,1944.47 587.479,1940.47 586.5,1936.5C 585.022,1936.76 583.689,1936.43 582.5,1935.5C 581.771,1933.02 581.104,1930.52 580.5,1928C 576.032,1922.83 573.365,1916.83 572.5,1910C 568.787,1907.07 566.787,1903.24 566.5,1898.5C 561.321,1892.13 558.821,1884.8 559,1876.5C 554.062,1869.28 551.396,1861.28 551,1852.5C 549.581,1850.66 548.414,1848.66 547.5,1846.5C 546.255,1840.21 545.255,1833.88 544.5,1827.5C 541.893,1822.07 540.059,1816.4 539,1810.5C 538.167,1801.18 537.501,1791.85 537,1782.5C 536.692,1781.69 536.192,1781.03 535.5,1780.5C 534.833,1775.83 534.167,1771.17 533.5,1766.5C 532.167,1740.5 532.167,1714.5 533.5,1688.5C 534.414,1686.34 535.581,1684.34 537,1682.5C 537.236,1671.78 538.069,1661.11 539.5,1650.5C 543.589,1628.81 548.922,1607.48 555.5,1586.5C 556.853,1585.31 558.02,1583.98 559,1582.5C 559.512,1578.43 560.345,1574.43 561.5,1570.5C 562.807,1569.18 564.307,1568.18 566,1567.5C 566.953,1561.78 568.119,1556.11 569.5,1550.5C 570.524,1549.15 571.857,1548.48 573.5,1548.5C 574.066,1542.53 576.399,1537.37 580.5,1533C 581.633,1527.19 584.133,1522.03 588,1517.5C 588.716,1513.27 590.883,1509.94 594.5,1507.5C 595.347,1504.45 596.347,1501.45 597.5,1498.5C 598.807,1497.18 600.307,1496.18 602,1495.5C 602.117,1492.06 603.283,1489.06 605.5,1486.5C 608.693,1481.63 612.526,1477.3 617,1473.5C 622.022,1464.77 627.522,1456.44 633.5,1448.5C 637.197,1444.67 641.197,1441 645.5,1437.5C 648.471,1430.7 653.304,1425.7 660,1422.5C 660.68,1418.65 663.013,1416.65 667,1416.5C 667.346,1414.78 667.846,1413.12 668.5,1411.5C 672.696,1410.97 674.696,1408.64 674.5,1404.5C 678.978,1403.85 682.312,1401.51 684.5,1397.5C 686.113,1396.57 687.779,1395.74 689.5,1395C 690.38,1393.64 690.714,1392.14 690.5,1390.5C 694.633,1390.36 697.299,1388.36 698.5,1384.5C 703.737,1382.61 708.404,1379.61 712.5,1375.5C 716.696,1374.97 718.696,1372.64 718.5,1368.5C 720.199,1368.66 721.866,1368.49 723.5,1368C 728.308,1363.24 733.974,1360.07 740.5,1358.5C 740.5,1357.17 740.5,1355.83 740.5,1354.5C 746.466,1353.68 751.466,1351.02 755.5,1346.5C 762.276,1342.11 769.609,1338.78 777.5,1336.5C 778.878,1334.79 780.545,1333.45 782.5,1332.5C 786.506,1331.5 790.506,1330.5 794.5,1329.5C 798.169,1325.33 802.836,1323.16 808.5,1323C 812.908,1318.72 818.241,1316.56 824.5,1316.5C 829.657,1312.04 835.657,1309.71 842.5,1309.5 Z"/></g>
<g><path style="opacity:0.022" fill="#f4f5f6" d="M 1485.5,1311.5 C 1486.38,1311.37 1487.04,1311.7 1487.5,1312.5C 1477.72,1316.56 1468.05,1320.89 1458.5,1325.5C 1457.89,1325.38 1457.56,1325.04 1457.5,1324.5C 1458.83,1322.84 1460.5,1321.51 1462.5,1320.5C 1470.56,1318.25 1478.23,1315.25 1485.5,1311.5 Z"/></g>
<g><path style="opacity:0.023" fill="#f3f4f5" d="M 1454.5,1325.5 C 1455.38,1325.37 1456.04,1325.7 1456.5,1326.5C 1452.63,1328.47 1448.63,1330.13 1444.5,1331.5C 1443.83,1331.5 1443.5,1331.17 1443.5,1330.5C 1446.75,1328.05 1450.41,1326.38 1454.5,1325.5 Z"/></g>
<g><path style="opacity:0.031" fill="#fefffe" d="M 1437.5,1333.5 C 1437.5,1334.17 1437.5,1334.83 1437.5,1335.5C 1436.5,1335.5 1435.5,1335.5 1434.5,1335.5C 1435.29,1334.6 1436.29,1333.93 1437.5,1333.5 Z"/></g>
<g><path style="opacity:0.035" fill="#70677a" d="M 1443.5,1330.5 C 1443.5,1331.17 1443.83,1331.5 1444.5,1331.5C 1442.32,1332.98 1439.99,1334.31 1437.5,1335.5C 1437.5,1334.83 1437.5,1334.17 1437.5,1333.5C 1439.64,1332.84 1441.64,1331.84 1443.5,1330.5 Z"/></g>
<g><path style="opacity:0.055" fill="#fdfeff" d="M 1425.5,1339.5 C 1425.29,1341.42 1424.62,1341.76 1423.5,1340.5C 1424.17,1340.17 1424.83,1339.83 1425.5,1339.5 Z"/></g>
<g><path style="opacity:0.031" fill="#fefeff" d="M 1409.5,1349.5 C 1409.29,1351.42 1408.62,1351.76 1407.5,1350.5C 1408.17,1350.17 1408.83,1349.83 1409.5,1349.5 Z"/></g>
<g><path style="opacity:0.054" fill="#fefffe" d="M 1400.5,1355.5 C 1401.77,1356.08 1401.77,1356.74 1400.5,1357.5C 1399.89,1357.38 1399.56,1357.04 1399.5,1356.5C 1400.17,1356.5 1400.5,1356.17 1400.5,1355.5 Z"/></g>
<g><path style="opacity:0.065" fill="#fefdff" d="M 1392.5,1361.5 C 1393.77,1362.08 1393.77,1362.74 1392.5,1363.5C 1391.89,1363.38 1391.56,1363.04 1391.5,1362.5C 1392.17,1362.5 1392.5,1362.17 1392.5,1361.5 Z"/></g>
<g><path style="opacity:0.033" fill="#f8f9f9" d="M 1805.5,1303.5 C 1815.71,1306.94 1825.38,1311.44 1834.5,1317C 1841.03,1318.02 1846.86,1320.52 1852,1324.5C 1859.68,1326.93 1866.85,1330.26 1873.5,1334.5C 1879.27,1338.05 1884.77,1342.05 1890,1346.5C 1892.88,1347.4 1895.71,1348.4 1898.5,1349.5C 1907.8,1357.81 1917.8,1365.15 1928.5,1371.5C 1930.87,1375.34 1934.2,1377.67 1938.5,1378.5C 1937.95,1382.29 1939.62,1384.29 1943.5,1384.5C 1947.31,1388.45 1950.98,1392.62 1954.5,1397C 1956.35,1398.13 1958.35,1398.63 1960.5,1398.5C 1960.34,1399.87 1960.51,1401.21 1961,1402.5C 1964.05,1404.55 1966.38,1407.22 1968,1410.5C 1975.31,1413.14 1980.31,1418.14 1983,1425.5C 1986.82,1427.14 1989.32,1429.97 1990.5,1434C 1991.79,1434.49 1993.13,1434.66 1994.5,1434.5C 1994.64,1438.63 1996.64,1441.3 2000.5,1442.5C 2001.65,1445.48 2002.99,1448.48 2004.5,1451.5C 2010.63,1458.81 2016.63,1466.31 2022.5,1474C 2024.51,1476.86 2025.84,1480.03 2026.5,1483.5C 2027.69,1484.43 2029.02,1484.76 2030.5,1484.5C 2031.29,1490.41 2033.96,1495.41 2038.5,1499.5C 2042.89,1506.28 2046.22,1513.61 2048.5,1521.5C 2050.21,1522.88 2051.55,1524.54 2052.5,1526.5C 2052.63,1532.88 2054.96,1538.21 2059.5,1542.5C 2060.82,1547.11 2061.82,1551.77 2062.5,1556.5C 2063.83,1556.5 2065.17,1556.5 2066.5,1556.5C 2067.33,1561.15 2068.16,1565.82 2069,1570.5C 2069.72,1573.62 2071.22,1576.28 2073.5,1578.5C 2074.82,1583.43 2075.82,1588.43 2076.5,1593.5C 2076.76,1595.62 2077.76,1597.28 2079.5,1598.5C 2081.56,1605.35 2082.9,1612.35 2083.5,1619.5C 2082.5,1619.53 2081.84,1619.03 2081.5,1618C 2080.09,1611.82 2078.59,1605.65 2077,1599.5C 2074.06,1593.28 2071.39,1586.95 2069,1580.5C 2050.66,1543.84 2033.5,1506.84 2017.5,1469.5C 2016.13,1469.66 2014.79,1469.49 2013.5,1469C 1996.67,1449.5 1979.83,1430 1963,1410.5C 1946.13,1393.63 1928.63,1377.46 1910.5,1362C 1876.84,1340.35 1841.84,1321.35 1805.5,1305C 1804.26,1304.31 1804.26,1303.81 1805.5,1303.5 Z"/></g>
<g><path style="opacity:0.03" fill="#dad9d9" d="M 1385.5,1367.5 C 1382.45,1372.89 1378.11,1376.89 1372.5,1379.5C 1376.51,1375.16 1380.84,1371.16 1385.5,1367.5 Z"/></g>
<g><path style="opacity:0.055" fill="#caccc8" d="M 1372.5,1379.5 C 1372.5,1381.5 1371.5,1382.5 1369.5,1382.5C 1370.17,1381.17 1371.17,1380.17 1372.5,1379.5 Z"/></g>
<g><path style="opacity:0.013" fill="#ebecf1" d="M 1368.5,1383.5 C 1367.17,1385.5 1365.5,1387.17 1363.5,1388.5C 1363.94,1385.65 1365.6,1383.98 1368.5,1383.5 Z"/></g>
<g><path style="opacity:0.014" fill="#f5f5f6" d="M 1361.5,1389.5 C 1361.61,1390.12 1361.94,1390.62 1362.5,1391C 1360,1392.17 1358.17,1394 1357,1396.5C 1356.62,1395.94 1356.12,1395.61 1355.5,1395.5C 1356.83,1392.83 1358.83,1390.83 1361.5,1389.5 Z"/></g>
<g><path style="opacity:0.019" fill="#e6e7ea" d="M 1352.5,1397.5 C 1353.38,1397.37 1354.04,1397.7 1354.5,1398.5C 1350.15,1402.02 1346.31,1406.02 1343,1410.5C 1342.62,1409.94 1342.12,1409.61 1341.5,1409.5C 1344.83,1405.17 1348.49,1401.17 1352.5,1397.5 Z"/></g>
<g><path style="opacity:0.015" fill="#f4f5f6" d="M 1338.5,1411.5 C 1340.03,1411.52 1340.53,1412.18 1340,1413.5C 1335.94,1417.07 1331.77,1420.4 1327.5,1423.5C 1328.3,1421.96 1328.63,1420.29 1328.5,1418.5C 1332.5,1418.5 1334.5,1416.5 1334.5,1412.5C 1336.1,1412.77 1337.43,1412.43 1338.5,1411.5 Z"/></g>
<g><path style="opacity:0.013" fill="#efeff3" d="M 1325.5,1425.5 C 1326.04,1425.56 1326.38,1425.89 1326.5,1426.5C 1324.14,1428.02 1322.31,1430.02 1321,1432.5C 1320.62,1431.94 1320.12,1431.61 1319.5,1431.5C 1320.83,1428.83 1322.83,1426.83 1325.5,1425.5 Z"/></g>
<g><path style="opacity:0.013" fill="#fffdff" d="M 1317.5,1433.5 C 1317.26,1435.4 1316.26,1436.74 1314.5,1437.5C 1314.74,1435.6 1315.74,1434.26 1317.5,1433.5 Z"/></g>
<g><path style="opacity:1" fill="#c7c7c9" d="M 1690.5,1618.5 C 1680.85,1617.75 1671.19,1617.42 1661.5,1617.5C 1661.61,1616.88 1661.94,1616.38 1662.5,1616C 1670.83,1615.33 1679.17,1615.33 1687.5,1616C 1688.57,1616.85 1689.57,1617.69 1690.5,1618.5 Z"/></g>
<g><path style="opacity:1" fill="#010101" d="M 1659.5,1617.5 C 1660.17,1617.5 1660.83,1617.5 1661.5,1617.5C 1671.19,1617.42 1680.85,1617.75 1690.5,1618.5C 1694.5,1620.61 1698.84,1621.94 1703.5,1622.5C 1704.17,1622.5 1704.83,1622.5 1705.5,1622.5C 1712.33,1626.42 1719.33,1630.08 1726.5,1633.5C 1728.44,1636.47 1731.11,1638.47 1734.5,1639.5C 1738.53,1643.86 1742.53,1648.19 1746.5,1652.5C 1747.17,1653.5 1747.83,1654.5 1748.5,1655.5C 1753.41,1662.95 1757.74,1670.61 1761.5,1678.5C 1768.37,1701.79 1767.7,1724.79 1759.5,1747.5C 1749.13,1769.2 1733.13,1785.2 1711.5,1795.5C 1702.96,1798.41 1694.29,1800.91 1685.5,1803C 1671.56,1804.44 1657.9,1803.27 1644.5,1799.5C 1641.35,1799.58 1638.68,1798.58 1636.5,1796.5C 1633.66,1794.03 1630.33,1792.37 1626.5,1791.5C 1622.52,1788.86 1618.52,1786.19 1614.5,1783.5C 1608.81,1777.47 1603.14,1771.47 1597.5,1765.5C 1596.33,1762.49 1594.66,1759.82 1592.5,1757.5C 1592.67,1756.51 1592.34,1755.84 1591.5,1755.5C 1590.06,1751.16 1588.06,1747.16 1585.5,1743.5C 1585.95,1740.99 1585.28,1738.99 1583.5,1737.5C 1582.67,1733.19 1582.01,1728.86 1581.5,1724.5C 1580.23,1714.16 1580.23,1703.83 1581.5,1693.5C 1581.5,1692.83 1581.5,1692.17 1581.5,1691.5C 1583.82,1684.21 1586.15,1676.87 1588.5,1669.5C 1588.5,1669.17 1588.5,1668.83 1588.5,1668.5C 1589.81,1667.03 1591.31,1665.7 1593,1664.5C 1594.58,1660.74 1596.41,1657.07 1598.5,1653.5C 1600.5,1651.5 1602.5,1649.5 1604.5,1647.5C 1607.17,1645.5 1609.5,1643.17 1611.5,1640.5C 1611.5,1640.17 1611.5,1639.83 1611.5,1639.5C 1618.64,1634.33 1625.97,1629.66 1633.5,1625.5C 1634.71,1625.07 1635.71,1624.4 1636.5,1623.5C 1644.29,1621.64 1651.96,1619.64 1659.5,1617.5 Z"/></g>
<g><path style="opacity:1" fill="#b7b7ba" d="M 1659.5,1617.5 C 1651.96,1619.64 1644.29,1621.64 1636.5,1623.5C 1636.95,1622.54 1637.62,1621.71 1638.5,1621C 1645.43,1619.38 1652.43,1618.21 1659.5,1617.5 Z"/></g>
<g><path style="opacity:1" fill="#767378" d="M 1690.5,1618.5 C 1695.16,1619.06 1699.5,1620.39 1703.5,1622.5C 1698.84,1621.94 1694.5,1620.61 1690.5,1618.5 Z"/></g>
<g><path style="opacity:0.07" fill="#fafcfb" d="M 2084.5,1621.5 C 2088.3,1630.71 2089.97,1640.37 2089.5,1650.5C 2089.44,1651.04 2089.11,1651.38 2088.5,1651.5C 2087.94,1647.36 2087.1,1643.36 2086,1639.5C 2085.82,1634.36 2084.99,1629.36 2083.5,1624.5C 2083.52,1623.27 2083.85,1622.27 2084.5,1621.5 Z"/></g>
<g><path style="opacity:1" fill="#a29d9f" d="M 1705.5,1622.5 C 1712.47,1624.48 1719.13,1627.31 1725.5,1631C 1726.25,1631.67 1726.59,1632.5 1726.5,1633.5C 1719.33,1630.08 1712.33,1626.42 1705.5,1622.5 Z"/></g>
<g><path style="opacity:1" fill="#b1b1b2" d="M 1633.5,1625.5 C 1625.97,1629.66 1618.64,1634.33 1611.5,1639.5C 1615.97,1634.87 1620.97,1630.71 1626.5,1627C 1628.87,1626.56 1631.2,1626.06 1633.5,1625.5 Z"/></g>
<g><path style="opacity:1" fill="#b2aeb0" d="M 1726.5,1633.5 C 1730.57,1633.56 1733.24,1635.56 1734.5,1639.5C 1731.11,1638.47 1728.44,1636.47 1726.5,1633.5 Z"/></g>
<g><path style="opacity:1" fill="#bab7b9" d="M 1734.5,1639.5 C 1738.71,1641.7 1742.38,1644.7 1745.5,1648.5C 1746.43,1649.69 1746.76,1651.02 1746.5,1652.5C 1742.53,1648.19 1738.53,1643.86 1734.5,1639.5 Z"/></g>
<g><path style="opacity:1" fill="#828284" d="M 1611.5,1640.5 C 1609.5,1643.17 1607.17,1645.5 1604.5,1647.5C 1605.83,1644.17 1608.17,1641.83 1611.5,1640.5 Z"/></g>
<g><path style="opacity:1" fill="#c9c9ca" d="M 937.5,1650.5 C 943.987,1649.35 950.654,1649.18 957.5,1650C 960.992,1649.93 963.992,1650.76 966.5,1652.5C 963.098,1652.66 959.764,1652.32 956.5,1651.5C 950.355,1650.51 944.022,1650.18 937.5,1650.5 Z"/></g>
<g><path style="opacity:1" fill="#969699" d="M 937.5,1650.5 C 944.022,1650.18 950.355,1650.51 956.5,1651.5C 948.826,1651.33 941.159,1651.5 933.5,1652C 927.206,1654.05 920.872,1655.88 914.5,1657.5C 918.778,1655.36 923.111,1653.19 927.5,1651C 930.817,1650.5 934.15,1650.33 937.5,1650.5 Z"/></g>
<g><path style="opacity:1" fill="#010101" d="M 956.5,1651.5 C 959.764,1652.32 963.098,1652.66 966.5,1652.5C 970.745,1654.94 975.412,1656.27 980.5,1656.5C 983.579,1658.54 986.912,1660.2 990.5,1661.5C 994.888,1663.69 999.221,1666.02 1003.5,1668.5C 1004.26,1670.26 1005.6,1671.26 1007.5,1671.5C 1011.17,1675.83 1015.17,1679.83 1019.5,1683.5C 1020.17,1684.5 1020.83,1685.5 1021.5,1686.5C 1022.08,1688.75 1023.41,1690.42 1025.5,1691.5C 1025.83,1692.5 1026.5,1693.17 1027.5,1693.5C 1032.94,1701.69 1036.61,1710.69 1038.5,1720.5C 1038.9,1724.91 1039.74,1729.25 1041,1733.5C 1041.5,1738.49 1041.67,1743.49 1041.5,1748.5C 1041.5,1751.17 1041.5,1753.83 1041.5,1756.5C 1038.53,1764.15 1036.53,1772.15 1035.5,1780.5C 1034.66,1780.84 1034.33,1781.51 1034.5,1782.5C 1032.03,1783.61 1031.03,1785.61 1031.5,1788.5C 1030.62,1788.37 1029.96,1788.7 1029.5,1789.5C 1027.44,1793.2 1025.44,1796.87 1023.5,1800.5C 1021.41,1801.58 1020.08,1803.25 1019.5,1805.5C 1014.67,1810.16 1009.67,1814.66 1004.5,1819C 998.941,1822.78 993.274,1826.28 987.5,1829.5C 987.167,1829.5 986.833,1829.5 986.5,1829.5C 977.987,1832.3 969.321,1834.8 960.5,1837C 951.473,1837.72 942.473,1837.55 933.5,1836.5C 916.095,1833.79 900.761,1826.79 887.5,1815.5C 885.167,1812.5 882.5,1809.83 879.5,1807.5C 873.339,1799.68 868.006,1791.34 863.5,1782.5C 862.905,1779.68 861.572,1777.35 859.5,1775.5C 847.794,1728.09 861.794,1690.59 901.5,1663C 905.71,1661.39 909.71,1659.56 913.5,1657.5C 913.833,1657.5 914.167,1657.5 914.5,1657.5C 920.872,1655.88 927.206,1654.05 933.5,1652C 941.159,1651.5 948.826,1651.33 956.5,1651.5 Z"/></g>
<g><path style="opacity:1" fill="#b6b2b4" d="M 966.5,1652.5 C 977.01,1653.53 987.01,1656.36 996.5,1661C 999.393,1663.08 1001.73,1665.58 1003.5,1668.5C 999.221,1666.02 994.888,1663.69 990.5,1661.5C 987.844,1658.71 984.511,1657.04 980.5,1656.5C 975.412,1656.27 970.745,1654.94 966.5,1652.5 Z"/></g>
<g><path style="opacity:1" fill="#666166" d="M 980.5,1656.5 C 984.511,1657.04 987.844,1658.71 990.5,1661.5C 986.912,1660.2 983.579,1658.54 980.5,1656.5 Z"/></g>
<g><path style="opacity:1" fill="#b8b7b8" d="M 1598.5,1653.5 C 1596.41,1657.07 1594.58,1660.74 1593,1664.5C 1591.31,1665.7 1589.81,1667.03 1588.5,1668.5C 1590.29,1662.39 1593.62,1657.39 1598.5,1653.5 Z"/></g>
<g><path style="opacity:0.054" fill="#fefefe" d="M 2090.5,1663.5 C 2091.75,1667.72 2092.75,1672.06 2093.5,1676.5C 2094.6,1690.16 2095.6,1703.83 2096.5,1717.5C 2095.6,1731.17 2094.6,1744.84 2093.5,1758.5C 2092.75,1762.94 2091.75,1767.28 2090.5,1771.5C 2089.51,1735.3 2089.51,1699.3 2090.5,1663.5 Z"/></g>
<g><path style="opacity:1" fill="#898488" d="M 1007.5,1671.5 C 1012.5,1674.5 1016.5,1678.5 1019.5,1683.5C 1015.17,1679.83 1011.17,1675.83 1007.5,1671.5 Z"/></g>
<g><path style="opacity:1" fill="#a0a0a2" d="M 1748.5,1655.5 C 1751.13,1657.63 1753.63,1659.96 1756,1662.5C 1756.58,1665.59 1757.91,1668.25 1760,1670.5C 1760.57,1673.17 1761.07,1675.83 1761.5,1678.5C 1757.74,1670.61 1753.41,1662.95 1748.5,1655.5 Z"/></g>
<g><path style="opacity:1" fill="#b2b2b3" d="M 1588.5,1669.5 C 1586.15,1676.87 1583.82,1684.21 1581.5,1691.5C 1581.34,1688.48 1581.5,1685.48 1582,1682.5C 1583.33,1678.5 1584.67,1674.5 1586,1670.5C 1586.67,1669.75 1587.5,1669.41 1588.5,1669.5 Z"/></g>
<g><path style="opacity:1" fill="#b3b3b4" d="M 913.5,1657.5 C 909.71,1659.56 905.71,1661.39 901.5,1663C 861.794,1690.59 847.794,1728.09 859.5,1775.5C 857.821,1771.35 856.321,1767.02 855,1762.5C 854.333,1750.17 854.333,1737.83 855,1725.5C 857.547,1719.05 859.547,1712.39 861,1705.5C 872.114,1685.05 887.947,1669.22 908.5,1658C 910.134,1657.51 911.801,1657.34 913.5,1657.5 Z"/></g>
<g><path style="opacity:1" fill="#545356" d="M 1021.5,1686.5 C 1023.59,1687.58 1024.92,1689.25 1025.5,1691.5C 1023.41,1690.42 1022.08,1688.75 1021.5,1686.5 Z"/></g>
<g><path style="opacity:1" fill="#b9b8b9" d="M 1027.5,1693.5 C 1029.02,1693.51 1030.18,1694.18 1031,1695.5C 1037.42,1705.93 1040.92,1717.26 1041.5,1729.5C 1040.95,1726.35 1039.95,1723.35 1038.5,1720.5C 1036.61,1710.69 1032.94,1701.69 1027.5,1693.5 Z"/></g>
<g><path style="opacity:1" fill="#686767" d="M 1581.5,1693.5 C 1580.23,1703.83 1580.23,1714.16 1581.5,1724.5C 1580.73,1723.74 1580.23,1722.74 1580,1721.5C 1579.5,1713.51 1579.33,1705.51 1579.5,1697.5C 1579.99,1696 1580.66,1694.67 1581.5,1693.5 Z"/></g>
<g><path style="opacity:1" fill="#bebebe" d="M 1579.5,1697.5 C 1579.33,1705.51 1579.5,1713.51 1580,1721.5C 1580.23,1722.74 1580.73,1723.74 1581.5,1724.5C 1582.01,1728.86 1582.67,1733.19 1583.5,1737.5C 1581.57,1734.25 1580.07,1730.58 1579,1726.5C 1578.18,1716.66 1578.34,1706.99 1579.5,1697.5 Z"/></g>
<g><path style="opacity:1" fill="#c1c1c4" d="M 1761.5,1678.5 C 1764.62,1682.16 1766.46,1686.49 1767,1691.5C 1768.05,1707.25 1767.38,1722.92 1765,1738.5C 1762.2,1743.83 1759.7,1749.16 1757.5,1754.5C 1758.17,1752.17 1758.83,1749.83 1759.5,1747.5C 1767.7,1724.79 1768.37,1701.79 1761.5,1678.5 Z"/></g>
<g><path style="opacity:1" fill="#707074" d="M 1038.5,1720.5 C 1039.95,1723.35 1040.95,1726.35 1041.5,1729.5C 1042.73,1735.98 1042.73,1742.31 1041.5,1748.5C 1041.67,1743.49 1041.5,1738.49 1041,1733.5C 1039.74,1729.25 1038.9,1724.91 1038.5,1720.5 Z"/></g>
<g><path style="opacity:1" fill="#8a8c8c" d="M 1585.5,1743.5 C 1588.06,1747.16 1590.06,1751.16 1591.5,1755.5C 1590.21,1754.71 1589.04,1753.71 1588,1752.5C 1587.26,1749.45 1586.43,1746.45 1585.5,1743.5 Z"/></g>
<g><path style="opacity:1" fill="#8d8e8e" d="M 1592.5,1757.5 C 1594.66,1759.82 1596.33,1762.49 1597.5,1765.5C 1594.2,1763.87 1592.54,1761.2 1592.5,1757.5 Z"/></g>
<g><path style="opacity:1" fill="#8f8e8e" d="M 1597.5,1765.5 C 1603.14,1771.47 1608.81,1777.47 1614.5,1783.5C 1613.42,1783.46 1612.42,1783.13 1611.5,1782.5C 1607.48,1777.65 1602.98,1773.31 1598,1769.5C 1597.51,1768.21 1597.34,1766.87 1597.5,1765.5 Z"/></g>
<g><path style="opacity:0.131" fill="#fdfdfe" d="M 2089.5,1784.5 C 2089.24,1793.6 2088.24,1802.6 2086.5,1811.5C 2085.84,1810.04 2085.51,1808.37 2085.5,1806.5C 2087.02,1795.66 2088.02,1784.66 2088.5,1773.5C 2089.49,1777.11 2089.82,1780.77 2089.5,1784.5 Z"/></g>
<g><path style="opacity:1" fill="#939396" d="M 1759.5,1747.5 C 1758.83,1749.83 1758.17,1752.17 1757.5,1754.5C 1755.11,1758.28 1752.94,1762.28 1751,1766.5C 1742.43,1775.74 1733.27,1784.24 1723.5,1792C 1719.56,1793.48 1715.56,1794.65 1711.5,1795.5C 1733.13,1785.2 1749.13,1769.2 1759.5,1747.5 Z"/></g>
<g><path style="opacity:1" fill="#909094" d="M 1041.5,1756.5 C 1041.08,1763.27 1039.91,1769.94 1038,1776.5C 1037.39,1778.07 1036.56,1779.4 1035.5,1780.5C 1036.53,1772.15 1038.53,1764.15 1041.5,1756.5 Z"/></g>
<g><path style="opacity:1" fill="#7f8083" d="M 1034.5,1782.5 C 1034.01,1784.82 1033.01,1786.82 1031.5,1788.5C 1031.03,1785.61 1032.03,1783.61 1034.5,1782.5 Z"/></g>
<g><path style="opacity:1" fill="#9e9e9e" d="M 863.5,1782.5 C 868.006,1791.34 873.339,1799.68 879.5,1807.5C 870.874,1801.24 865.541,1792.91 863.5,1782.5 Z"/></g>
<g><path style="opacity:1" fill="#898a8c" d="M 1626.5,1791.5 C 1630.33,1792.37 1633.66,1794.03 1636.5,1796.5C 1632.27,1796.6 1628.94,1794.93 1626.5,1791.5 Z"/></g>
<g><path style="opacity:1" fill="#9a9a9d" d="M 1711.5,1795.5 C 1707.7,1798.5 1703.37,1800.67 1698.5,1802C 1686.34,1805.15 1674.01,1806.15 1661.5,1805C 1655.38,1804.22 1649.72,1802.38 1644.5,1799.5C 1657.9,1803.27 1671.56,1804.44 1685.5,1803C 1694.29,1800.91 1702.96,1798.41 1711.5,1795.5 Z"/></g>
<g><path style="opacity:1" fill="#716f73" d="M 1023.5,1800.5 C 1022.92,1802.75 1021.59,1804.42 1019.5,1805.5C 1020.08,1803.25 1021.41,1801.58 1023.5,1800.5 Z"/></g>
<g><path style="opacity:1" fill="#989899" d="M 879.5,1807.5 C 882.5,1809.83 885.167,1812.5 887.5,1815.5C 883.833,1813.83 881.167,1811.17 879.5,1807.5 Z"/></g>
<g><path style="opacity:1" fill="#cfcfd2" d="M 1031.5,1788.5 C 1027.31,1800.05 1020.31,1809.71 1010.5,1817.5C 1013.5,1813.5 1016.5,1809.5 1019.5,1805.5C 1021.59,1804.42 1022.92,1802.75 1023.5,1800.5C 1025.44,1796.87 1027.44,1793.2 1029.5,1789.5C 1029.96,1788.7 1030.62,1788.37 1031.5,1788.5 Z"/></g>
<g><path style="opacity:1" fill="#a7a7aa" d="M 1019.5,1805.5 C 1016.5,1809.5 1013.5,1813.5 1010.5,1817.5C 1006.71,1820.12 1003.04,1822.95 999.5,1826C 995.404,1826.88 991.404,1828.05 987.5,1829.5C 993.274,1826.28 998.941,1822.78 1004.5,1819C 1009.67,1814.66 1014.67,1810.16 1019.5,1805.5 Z"/></g>
<g><path style="opacity:1" fill="#9a9b9e" d="M 986.5,1829.5 C 981.913,1833.29 976.58,1835.79 970.5,1837C 959.202,1838.46 947.869,1838.79 936.5,1838C 935.263,1837.77 934.263,1837.27 933.5,1836.5C 942.473,1837.55 951.473,1837.72 960.5,1837C 969.321,1834.8 977.987,1832.3 986.5,1829.5 Z"/></g>
<g><path style="opacity:0.055" fill="#f6f6f8" d="M 2075.5,1851.5 C 2074.8,1854.31 2073.8,1856.98 2072.5,1859.5C 2071.43,1858.75 2071.26,1857.75 2072,1856.5C 2072.74,1854.4 2073.9,1852.74 2075.5,1851.5 Z"/></g>
<g><path style="opacity:0.078" fill="#fffeff" d="M 2071.5,1861.5 C 2071.17,1862.17 2070.83,1862.83 2070.5,1863.5C 2069.24,1862.38 2069.58,1861.71 2071.5,1861.5 Z"/></g>
<g><path style="opacity:0.06" fill="#d6d5d6" d="M 2068.5,1866.5 C 2068.66,1868.53 2068.5,1870.53 2068,1872.5C 2067.62,1873.06 2067.12,1873.39 2066.5,1873.5C 2066.93,1870.99 2067.59,1868.66 2068.5,1866.5 Z"/></g>
<g><path style="opacity:0.035" fill="#f2f1f1" d="M 2066.5,1873.5 C 2066.74,1875.89 2066.07,1877.89 2064.5,1879.5C 2063.96,1879.44 2063.62,1879.11 2063.5,1878.5C 2064.7,1876.86 2065.7,1875.19 2066.5,1873.5 Z"/></g>
<g><path style="opacity:0.074" fill="#fefffe" d="M 2061.5,1889.5 C 2060.77,1890.71 2060.43,1892.04 2060.5,1893.5C 2059.88,1893.08 2059.54,1892.42 2059.5,1891.5C 2059.75,1890.29 2060.41,1889.62 2061.5,1889.5 Z"/></g>
<g><path style="opacity:0.042" fill="#fafafa" d="M 2053.5,1904.5 C 2051.34,1910.81 2048.67,1916.81 2045.5,1922.5C 2043.46,1924.21 2041.79,1926.21 2040.5,1928.5C 2039.47,1933.3 2038.13,1937.97 2036.5,1942.5C 2032.12,1943.22 2030.12,1945.89 2030.5,1950.5C 2029.17,1950.5 2027.83,1950.5 2026.5,1950.5C 2026.44,1954.89 2024.6,1958.22 2021,1960.5C 2018.58,1964.21 2017.08,1968.21 2016.5,1972.5C 2014.86,1972.29 2013.36,1972.62 2012,1973.5C 2011.02,1975.74 2010.52,1978.07 2010.5,1980.5C 2008.51,1980.33 2006.84,1981 2005.5,1982.5C 2003.7,1988.2 2000.37,1992.87 1995.5,1996.5C 1994.57,1997.69 1994.24,1999.02 1994.5,2000.5C 1990.71,1999.95 1988.71,2001.62 1988.5,2005.5C 1985.9,2007.62 1983.57,2009.95 1981.5,2012.5C 1980.57,2013.69 1980.24,2015.02 1980.5,2016.5C 1976.36,2016.3 1974.03,2018.3 1973.5,2022.5C 1969.17,2022.83 1966.84,2025.16 1966.5,2029.5C 1962.5,2030.17 1960.17,2032.5 1959.5,2036.5C 1954.95,2037.38 1952.61,2040.05 1952.5,2044.5C 1950.74,2044.36 1949.07,2044.69 1947.5,2045.5C 1944,2049.8 1940.33,2053.8 1936.5,2057.5C 1928.56,2063.48 1920.23,2068.98 1911.5,2074C 1907.7,2078.47 1903.37,2082.31 1898.5,2085.5C 1895.94,2087.72 1892.94,2088.88 1889.5,2089C 1887.15,2093.6 1883.32,2096.1 1878,2096.5C 1875.24,2099.94 1871.74,2102.1 1867.5,2103C 1862.75,2107.58 1857.09,2110.08 1850.5,2110.5C 1850.5,2111.83 1850.5,2113.17 1850.5,2114.5C 1844.55,2115.96 1838.55,2117.29 1832.5,2118.5C 1832.5,2119.83 1832.5,2121.17 1832.5,2122.5C 1827.47,2123.12 1822.47,2123.95 1817.5,2125C 1816.66,2126.01 1816.33,2127.18 1816.5,2128.5C 1811.73,2130.44 1806.73,2131.61 1801.5,2132C 1795.17,2136.12 1788.17,2138.45 1780.5,2139C 1771.47,2143.84 1761.8,2146.34 1751.5,2146.5C 1746.07,2149.11 1740.4,2150.94 1734.5,2152C 1725.17,2152.67 1715.83,2153.33 1706.5,2154C 1705.69,2154.31 1705.03,2154.81 1704.5,2155.5C 1699.83,2156.17 1695.17,2156.83 1690.5,2157.5C 1666.5,2158.83 1642.5,2158.83 1618.5,2157.5C 1613.83,2156.83 1609.17,2156.17 1604.5,2155.5C 1603.97,2154.81 1603.31,2154.31 1602.5,2154C 1593.17,2153.33 1583.83,2152.67 1574.5,2152C 1568.6,2150.94 1562.93,2149.11 1557.5,2146.5C 1551.17,2145.43 1544.84,2144.43 1538.5,2143.5C 1533.11,2139.82 1527.11,2137.98 1520.5,2138C 1516.04,2136.27 1511.71,2134.27 1507.5,2132C 1503.15,2131.25 1498.81,2130.41 1494.5,2129.5C 1492.01,2127.42 1489.34,2125.59 1486.5,2124C 1481.63,2123.45 1476.96,2122.28 1472.5,2120.5C 1472.5,2119.5 1472.5,2118.5 1472.5,2117.5C 1466.53,2116.93 1461.37,2114.6 1457,2110.5C 1451.24,2109.72 1446.4,2107.22 1442.5,2103C 1437.69,2102.68 1434.03,2100.51 1431.5,2096.5C 1455.62,2106.16 1479.62,2116.33 1503.5,2127C 1523.33,2131.72 1543,2137.05 1562.5,2143C 1569.27,2143.08 1575.94,2143.74 1582.5,2145C 1602.74,2146.69 1623.07,2147.69 1643.5,2148C 1649.83,2149 1656.17,2150 1662.5,2151C 1690.15,2151.06 1717.48,2148.39 1744.5,2143C 1778.04,2133.28 1811.38,2122.95 1844.5,2112C 1845.17,2110.67 1845.83,2109.33 1846.5,2108C 1857.44,2103.53 1868.11,2098.53 1878.5,2093C 1896.69,2081.41 1914.36,2069.07 1931.5,2056C 1932.81,2053.43 1934.47,2051.09 1936.5,2049C 1950.31,2037.2 1964.14,2025.36 1978,2013.5C 1991.67,1995.83 2005.33,1978.17 2019,1960.5C 2029.97,1941.37 2041.13,1922.37 2052.5,1903.5C 2053.11,1903.62 2053.44,1903.96 2053.5,1904.5 Z"/></g>
<g><path style="opacity:0.02" fill="#f7f7f7" d="M 602.5,1965.5 C 616.203,1984.72 630.536,2003.55 645.5,2022C 645.272,2022.4 644.938,2022.57 644.5,2022.5C 640.815,2020.48 638.148,2017.48 636.5,2013.5C 635.311,2012.57 633.978,2012.24 632.5,2012.5C 632.528,2008.84 630.861,2006.18 627.5,2004.5C 621.12,1993.71 613.787,1983.71 605.5,1974.5C 603.664,1971.75 602.664,1968.75 602.5,1965.5 Z"/></g>
<g><path style="opacity:0.014" fill="#eaeae2" d="M 1327.5,2012.5 C 1329.14,2012.81 1330.14,2013.81 1330.5,2015.5C 1328.86,2015.19 1327.86,2014.19 1327.5,2012.5 Z"/></g>
<g><path style="opacity:0.004" fill="#f3edeb" d="M 1333.5,2019.5 C 1335.83,2019.83 1337.17,2021.17 1337.5,2023.5C 1335.83,2022.5 1334.5,2021.17 1333.5,2019.5 Z"/></g>
<g><path style="opacity:0.025" fill="#fefffe" d="M 646.5,2025.5 C 647.5,2025.5 648.5,2025.5 649.5,2025.5C 649.5,2026.83 649.5,2028.17 649.5,2029.5C 647.468,2028.95 646.468,2027.62 646.5,2025.5 Z"/></g>
<g><path style="opacity:0.011" fill="#d8d5d6" d="M 1341.5,2026.5 C 1344.17,2027.17 1345.83,2028.83 1346.5,2031.5C 1345.29,2030.77 1343.96,2030.43 1342.5,2030.5C 1342.57,2029.04 1342.23,2027.71 1341.5,2026.5 Z"/></g>
<g><path style="opacity:0.019" fill="#fbfbfa" d="M 1348.5,2032.5 C 1358.34,2040.83 1368.34,2049 1378.5,2057C 1382.11,2060.44 1385.45,2063.94 1388.5,2067.5C 1383.82,2066.27 1380.15,2063.6 1377.5,2059.5C 1375.93,2058.69 1374.26,2058.36 1372.5,2058.5C 1372.11,2054.93 1370.11,2052.6 1366.5,2051.5C 1364.8,2049.93 1363.47,2048.1 1362.5,2046C 1360.65,2044.87 1358.65,2044.37 1356.5,2044.5C 1356.5,2043.17 1356.5,2041.83 1356.5,2040.5C 1351.88,2039.88 1349.21,2037.21 1348.5,2032.5 Z"/></g>
<g><path style="opacity:0.027" fill="#9f9397" d="M 651.5,2032.5 C 651.56,2031.96 651.893,2031.62 652.5,2031.5C 654.167,2033.17 655.833,2034.83 657.5,2036.5C 657.376,2037.11 657.043,2037.44 656.5,2037.5C 654.833,2035.83 653.167,2034.17 651.5,2032.5 Z"/></g>
<g><path style="opacity:0.025" fill="#f5f3f1" d="M 659.5,2040.5 C 661.725,2039.67 663.058,2040.67 663.5,2043.5C 661.859,2042.85 660.526,2041.85 659.5,2040.5 Z"/></g>
<g><path style="opacity:0.016" fill="#ededec" d="M 667.5,2046.5 C 672.099,2049.49 676.432,2052.99 680.5,2057C 679.906,2057.46 679.239,2057.63 678.5,2057.5C 673.536,2055.2 669.869,2051.54 667.5,2046.5 Z"/></g>
<g><path style="opacity:0.032" fill="#f2f1f0" d="M 1390.5,2068.5 C 1392.23,2069.12 1393.73,2070.12 1395,2071.5C 1395.69,2072.44 1395.53,2073.1 1394.5,2073.5C 1392.79,2072.13 1391.46,2070.46 1390.5,2068.5 Z"/></g>
<g><path style="opacity:0.018" fill="#f2f2f0" d="M 681.5,2059.5 C 683.78,2060.64 686.114,2061.81 688.5,2063C 696.604,2071.26 704.937,2079.09 713.5,2086.5C 709.472,2083.15 705.139,2080.15 700.5,2077.5C 698.316,2075.48 696.316,2073.32 694.5,2071C 693.207,2070.51 691.873,2070.34 690.5,2070.5C 690.107,2066.93 688.107,2064.6 684.5,2063.5C 683.09,2062.43 682.09,2061.1 681.5,2059.5 Z"/></g>
<g><path style="opacity:0.028" fill="#e6e6e4" d="M 1397.5,2074.5 C 1397.9,2073.47 1398.56,2073.31 1399.5,2074C 1402.44,2077.43 1406.1,2079.76 1410.5,2081C 1417.21,2086.68 1424.21,2091.84 1431.5,2096.5C 1426.09,2095.9 1421.76,2093.4 1418.5,2089C 1413.53,2085.19 1408.2,2082.02 1402.5,2079.5C 1400.79,2077.79 1399.12,2076.12 1397.5,2074.5 Z"/></g>
<g><path style="opacity:0.025" fill="#f2f1f1" d="M 717.5,2088.5 C 717.897,2087.47 718.563,2087.31 719.5,2088C 722.42,2089.95 725.087,2092.11 727.5,2094.5C 723.404,2093.77 720.071,2091.77 717.5,2088.5 Z"/></g>
<g><path style="opacity:0.02" fill="#fbfafa" d="M 728.5,2094.5 C 750.634,2106.4 772.634,2118.57 794.5,2131C 796.765,2132.12 799.099,2132.95 801.5,2133.5C 801.5,2134.5 801.5,2135.5 801.5,2136.5C 796.685,2135.74 792.685,2133.57 789.5,2130C 784.785,2129.6 780.785,2127.77 777.5,2124.5C 773.109,2122.99 768.776,2121.32 764.5,2119.5C 762.01,2116.21 758.677,2114.21 754.5,2113.5C 750.867,2109.09 746.201,2106.76 740.5,2106.5C 740.762,2105.02 740.429,2103.69 739.5,2102.5C 737.5,2101.83 735.5,2101.17 733.5,2100.5C 731.758,2098.44 730.091,2096.44 728.5,2094.5 Z"/></g>
<g><path style="opacity:0.052" fill="#fafafa" d="M 1324.5,2009.5 C 1322.44,2006.98 1319.77,2006.15 1316.5,2007C 1310.42,2014.45 1304.09,2021.62 1297.5,2028.5C 1296.26,2029.25 1294.93,2029.58 1293.5,2029.5C 1293.52,2033.64 1291.52,2036.14 1287.5,2037C 1286.15,2040.86 1283.48,2043.03 1279.5,2043.5C 1279.2,2047.31 1277.2,2049.81 1273.5,2051C 1271.97,2054.7 1269.3,2057.2 1265.5,2058.5C 1264.98,2060.45 1263.98,2062.12 1262.5,2063.5C 1258.3,2064.03 1256.3,2066.36 1256.5,2070.5C 1254.8,2070.34 1253.13,2070.51 1251.5,2071C 1244.79,2077.34 1237.46,2082.67 1229.5,2087C 1228.19,2090.8 1225.53,2092.97 1221.5,2093.5C 1217.93,2098.12 1213.27,2100.95 1207.5,2102C 1206.62,2103.36 1206.29,2104.86 1206.5,2106.5C 1200.86,2106.76 1196.19,2109.09 1192.5,2113.5C 1189.99,2114.79 1187.32,2115.46 1184.5,2115.5C 1184.31,2118.03 1182.98,2119.69 1180.5,2120.5C 1174.01,2122.08 1168.01,2124.74 1162.5,2128.5C 1156.76,2128.76 1152.09,2131.09 1148.5,2135.5C 1144.57,2136.65 1140.57,2137.49 1136.5,2138C 1134.64,2139.69 1132.64,2141.19 1130.5,2142.5C 1125.78,2143.29 1121.12,2144.29 1116.5,2145.5C 1115.17,2146.83 1113.83,2148.17 1112.5,2149.5C 1107.22,2150.66 1101.89,2151.49 1096.5,2152C 1095.02,2152.98 1093.69,2154.15 1092.5,2155.5C 1085.22,2156.99 1077.89,2158.16 1070.5,2159C 1064.71,2161.45 1058.71,2163.28 1052.5,2164.5C 1039,2164.85 1025.67,2166.52 1012.5,2169.5C 979.652,2172.81 946.985,2171.65 914.5,2166C 901.461,2166.23 888.794,2164.23 876.5,2160C 875.944,2159.62 875.611,2159.12 875.5,2158.5C 882.664,2160.53 889.997,2162.2 897.5,2163.5C 899.343,2163.22 901.177,2162.89 903,2162.5C 914.912,2163.14 926.745,2164.14 938.5,2165.5C 955.065,2163.88 971.732,2163.05 988.5,2163C 1015.09,2160.36 1041.76,2158.36 1068.5,2157C 1082.38,2152.59 1096.38,2148.59 1110.5,2145C 1123.12,2140.43 1135.78,2135.76 1148.5,2131C 1173.78,2118.03 1198.45,2104.03 1222.5,2089C 1254.94,2060.57 1286.27,2030.57 1316.5,1999C 1319.11,2001.61 1321.95,2004.45 1325,2007.5C 1325.69,2008.44 1325.53,2009.1 1324.5,2009.5 Z"/></g>
<g><path style="opacity:0.016" fill="#8e8885" d="M 811.5,2142.5 C 811.917,2141.88 812.584,2141.54 813.5,2141.5C 815.418,2141.86 815.751,2142.53 814.5,2143.5C 813.791,2142.6 812.791,2142.26 811.5,2142.5 Z"/></g>
<g><path style="opacity:0.051" fill="#f0f1f0" d="M 831.5,2148.5 C 831.917,2147.88 832.584,2147.54 833.5,2147.5C 836.932,2149.06 840.599,2149.89 844.5,2150C 845.738,2150.69 845.738,2151.19 844.5,2151.5C 839.956,2151.24 835.623,2150.24 831.5,2148.5 Z"/></g>
<g><path style="opacity:0.127" fill="#fefffe" d="M 849.5,2152.5 C 850.623,2151.24 851.289,2151.58 851.5,2153.5C 850.833,2153.17 850.167,2152.83 849.5,2152.5 Z"/></g>
<g><path style="opacity:0.044" fill="#f9fafa" d="M 851.5,2153.5 C 859.781,2154.32 867.781,2155.99 875.5,2158.5C 869.777,2158.36 864.11,2157.69 858.5,2156.5C 855.741,2156.24 853.407,2155.24 851.5,2153.5 Z"/></g>
</svg>
