<svg width="32" height="32" viewBox="0 0 32 32" fill="none" xmlns="http://www.w3.org/2000/svg">
  <rect width="32" height="32" rx="8" fill="#0A0A0A"/>
  <path d="M16.9697 8.53V22.97H14.9697V10.47H10.4297V8.53H16.9697Z" fill="#5865F2"/>
  <path d="M21.6095 23.17C20.6095 23.17 19.6962 22.92 18.8695 22.42C18.0428 21.9067 17.3895 21.2 16.9095 20.3C16.4295 19.3867 16.1895 18.35 16.1895 17.19C16.1895 16.03 16.4295 14.9967 16.9095 14.09C17.3895 13.1833 18.0428 12.48 18.8695 11.98C19.6962 11.4667 20.6095 11.21 21.6095 11.21C22.6095 11.21 23.5228 11.4667 24.3495 11.98C25.1762 12.48 25.8295 13.1833 26.3095 14.09C26.7895 14.9967 27.0295 16.03 27.0295 17.19C27.0295 18.35 26.7895 19.3867 26.3095 20.3C25.8295 21.2 25.1762 21.9067 24.3495 22.42C23.5228 22.92 22.6095 23.17 21.6095 23.17ZM21.6095 21.21C22.2495 21.21 22.8095 21.0467 23.2895 20.72C23.7695 20.3933 24.1428 19.93 24.4095 19.33C24.6762 18.73 24.8095 18.01 24.8095 17.17C24.8095 16.33 24.6762 15.61 24.4095 15.01C24.1428 14.41 23.7695 13.9467 23.2895 13.62C22.8095 13.2933 22.2495 13.13 21.6095 13.13C20.9695 13.13 20.4095 13.2933 19.9295 13.62C19.4495 13.9467 19.0762 14.41 18.8095 15.01C18.5428 15.61 18.4095 16.33 18.4095 17.17C18.4095 18.01 18.5428 18.73 18.8095 19.33C19.0762 19.93 19.4495 20.3933 19.9295 20.72C20.4095 21.0467 20.9695 21.21 21.6095 21.21Z" fill="#F8F8F8"/>
</svg>
